<svg width="65" height="64" viewBox="0 0 65 64" fill="none" xmlns="http://www.w3.org/2000/svg">
<g clip-path="url(#clip0_1_1589)">
<path d="M1.48928 40.4783C0.734741 37.7304 0.350586 34.8763 0.350586 32.0016C0.350586 18.8788 8.59227 6.87991 20.8605 2.14819L22.469 6.31115C11.9088 10.385 4.81612 20.7084 4.81612 32.0016C4.81612 34.4788 5.14536 36.932 5.79359 39.2962L1.48928 40.4783Z" fill="#58D09E"/>
<path d="M20.6461 2.25038C23.3 1.21274 26.0984 0.532349 28.9573 0.231864C42.0082 -1.13984 54.8029 5.80246 60.7911 17.5088L56.8191 19.5437C51.6637 9.46722 40.6554 3.49247 29.4241 4.67293C26.9604 4.93187 24.5551 5.51574 22.2717 6.40753L20.6461 2.25038Z" fill="#58D09E"/>
<path d="M46.9978 55.2684C55.7122 49.7136 60.566 39.8556 59.6642 29.5473C59.3446 25.8949 58.3309 22.4065 56.6562 19.1859L60.6132 17.1217C62.5607 20.8659 63.7404 24.9147 64.1117 29.1582C65.1594 41.1338 59.5229 52.582 49.3979 59.035L46.9978 55.2684Z" fill="black"/>
<path d="M22.8532 25.3991C25.4425 25.3991 27.5518 26.7799 28.6357 29.1886L28.7214 29.3771L33.0702 27.9003L32.9777 27.6776C31.2937 23.5763 27.4146 21.0271 22.8532 21.0271C19.6462 21.0271 17.0397 22.0551 14.8858 24.1656C12.7456 26.2626 11.6619 28.9008 11.6619 32.0084C11.6619 35.0887 12.7456 37.7132 14.8858 39.8102C17.0397 41.9208 19.6462 42.9487 22.8532 42.9487C27.4146 42.9487 31.2937 40.3995 32.9777 36.3016L33.0702 36.079L28.7145 34.5987L28.6322 34.794C27.6616 37.1616 25.5009 38.5767 22.8532 38.5767C21.049 38.5767 19.5262 37.9463 18.3189 36.7059C17.098 35.4484 16.4806 33.869 16.4806 32.0119C16.4806 30.1411 17.0842 28.5924 18.3189 27.2767C19.5228 26.0296 21.049 25.3991 22.8532 25.3991Z" fill="black"/>
<path d="M50.0921 21.4316L43.8946 37.1138L37.656 21.4316H32.5525L41.3017 42.8358L35.0768 57.932L39.5389 58.8195L54.9144 21.4316H50.0921Z" fill="black"/>
<path d="M35.8751 55.9859L34.7879 58.6174C34.5718 59.1382 34.0779 59.491 33.5223 59.515C33.1554 59.5287 32.785 59.539 32.4111 59.539C19.6147 59.5322 8.29316 50.5107 5.48763 38.0801L1.13184 39.0634C2.70609 46.0359 6.65717 52.3643 12.2579 56.8871C17.9239 61.4611 25.0611 63.9863 32.3631 64.0001C32.3734 64.0001 32.4282 64.0001 32.4282 64.0001C32.857 64.0001 33.2822 63.9898 33.7075 63.9727C35.9986 63.8767 38.0462 62.4411 38.9207 60.3134L40.3406 56.8734L35.8751 55.9859Z" fill="black"/>
</g>
<defs>
<clipPath id="clip0_1_1589">
<rect width="64" height="64" fill="white" transform="translate(0.350586)"/>
</clipPath>
</defs>
</svg>
